<mxfile host="Electron" agent="Mozilla/5.0 (Windows NT 10.0; Win64; x64) AppleWebKit/537.36 (KHTML, like Gecko) draw.io/26.0.7 Chrome/128.0.6613.186 Electron/32.2.5 Safari/537.36" version="26.0.7">
  <diagram name="Page-1" id="RzzOeVVuILVj-rKlgHVC">
    <mxGraphModel dx="954" dy="657" grid="1" gridSize="10" guides="1" tooltips="1" connect="1" arrows="1" fold="1" page="1" pageScale="1" pageWidth="850" pageHeight="1100" math="0" shadow="0">
      <root>
        <mxCell id="0" />
        <mxCell id="1" parent="0" />
        <mxCell id="AEoWpA2s8od-1cQqJ8zc-3" style="edgeStyle=orthogonalEdgeStyle;rounded=0;orthogonalLoop=1;jettySize=auto;html=1;exitX=1;exitY=0.5;exitDx=0;exitDy=0;entryX=0;entryY=0.5;entryDx=0;entryDy=0;fontFamily=Times New Roman;fontSize=14;" parent="1" source="BQgqDWQCYyrBN21gysh5-12" target="BQgqDWQCYyrBN21gysh5-13" edge="1">
          <mxGeometry relative="1" as="geometry" />
        </mxCell>
        <mxCell id="BQgqDWQCYyrBN21gysh5-12" value="Raw Image&lt;div&gt;(224*224*3)&lt;/div&gt;" style="rounded=0;whiteSpace=wrap;html=1;fontFamily=Times New Roman;fontSize=14;fillColor=none;" parent="1" vertex="1">
          <mxGeometry x="160" y="80" width="80" height="80" as="geometry" />
        </mxCell>
        <mxCell id="AEoWpA2s8od-1cQqJ8zc-4" style="edgeStyle=orthogonalEdgeStyle;rounded=0;orthogonalLoop=1;jettySize=auto;html=1;exitX=1;exitY=0.5;exitDx=0;exitDy=0;entryX=0;entryY=0.5;entryDx=0;entryDy=0;fontFamily=Times New Roman;fontSize=14;" parent="1" source="BQgqDWQCYyrBN21gysh5-13" target="BQgqDWQCYyrBN21gysh5-14" edge="1">
          <mxGeometry relative="1" as="geometry" />
        </mxCell>
        <mxCell id="BQgqDWQCYyrBN21gysh5-13" value="96 Kernel&lt;div&gt;Size = 11*11*3&lt;/div&gt;&lt;div&gt;Stride = 4&lt;/div&gt;&lt;div&gt;Pad: 0&lt;/div&gt;" style="rounded=0;whiteSpace=wrap;html=1;fontFamily=Times New Roman;fontSize=14;fillColor=none;" parent="1" vertex="1">
          <mxGeometry x="280" y="80" width="90.46" height="80" as="geometry" />
        </mxCell>
        <mxCell id="AEoWpA2s8od-1cQqJ8zc-5" style="edgeStyle=orthogonalEdgeStyle;rounded=0;orthogonalLoop=1;jettySize=auto;html=1;exitX=1;exitY=0.5;exitDx=0;exitDy=0;entryX=0;entryY=0.5;entryDx=0;entryDy=0;fontFamily=Times New Roman;fontSize=14;" parent="1" source="BQgqDWQCYyrBN21gysh5-14" target="BQgqDWQCYyrBN21gysh5-15" edge="1">
          <mxGeometry relative="1" as="geometry" />
        </mxCell>
        <mxCell id="BQgqDWQCYyrBN21gysh5-14" value="&lt;font&gt;Kernel&lt;/font&gt;&lt;div&gt;&lt;font&gt;Size = 3&lt;/font&gt;&lt;/div&gt;&lt;div&gt;&lt;font&gt;Stride = 2&lt;/font&gt;&lt;/div&gt;&lt;div&gt;&lt;font&gt;Pad = 0&lt;/font&gt;&lt;/div&gt;" style="rounded=0;whiteSpace=wrap;html=1;fontFamily=Times New Roman;fontSize=14;fillColor=none;" parent="1" vertex="1">
          <mxGeometry x="400" y="80" width="80" height="80" as="geometry" />
        </mxCell>
        <mxCell id="BQgqDWQCYyrBN21gysh5-42" style="edgeStyle=orthogonalEdgeStyle;rounded=0;orthogonalLoop=1;jettySize=auto;html=1;entryX=1;entryY=0.5;entryDx=0;entryDy=0;fontFamily=Times New Roman;fontSize=14;fontColor=default;exitX=1;exitY=0.5;exitDx=0;exitDy=0;" parent="1" source="BQgqDWQCYyrBN21gysh5-15" target="BQgqDWQCYyrBN21gysh5-16" edge="1">
          <mxGeometry relative="1" as="geometry">
            <Array as="points">
              <mxPoint x="640" y="120" />
              <mxPoint x="640" y="280" />
            </Array>
          </mxGeometry>
        </mxCell>
        <mxCell id="BQgqDWQCYyrBN21gysh5-15" value="256 Kernel&lt;br&gt;Size = 5*5*48&lt;div&gt;Stride = 1&lt;br&gt;Pad = 2&lt;/div&gt;" style="rounded=0;whiteSpace=wrap;html=1;fontFamily=Times New Roman;fontSize=14;fillColor=none;" parent="1" vertex="1">
          <mxGeometry x="520" y="80" width="80" height="80" as="geometry" />
        </mxCell>
        <mxCell id="BQgqDWQCYyrBN21gysh5-43" style="edgeStyle=orthogonalEdgeStyle;rounded=0;orthogonalLoop=1;jettySize=auto;html=1;entryX=1;entryY=0.5;entryDx=0;entryDy=0;fontFamily=Times New Roman;fontSize=14;fontColor=default;" parent="1" source="BQgqDWQCYyrBN21gysh5-16" target="BQgqDWQCYyrBN21gysh5-17" edge="1">
          <mxGeometry relative="1" as="geometry" />
        </mxCell>
        <mxCell id="BQgqDWQCYyrBN21gysh5-16" value="Kernel&lt;div&gt;Size = 3&lt;/div&gt;&lt;div&gt;Stride = 2&lt;/div&gt;&lt;div&gt;Pad = 0&lt;/div&gt;" style="rounded=0;whiteSpace=wrap;html=1;fontFamily=Times New Roman;fontSize=14;fillColor=none;" parent="1" vertex="1">
          <mxGeometry x="520" y="239.99" width="80" height="80" as="geometry" />
        </mxCell>
        <mxCell id="BQgqDWQCYyrBN21gysh5-44" style="edgeStyle=orthogonalEdgeStyle;rounded=0;orthogonalLoop=1;jettySize=auto;html=1;entryX=1;entryY=0.5;entryDx=0;entryDy=0;fontFamily=Times New Roman;fontSize=14;fontColor=default;" parent="1" source="BQgqDWQCYyrBN21gysh5-17" target="BQgqDWQCYyrBN21gysh5-18" edge="1">
          <mxGeometry relative="1" as="geometry" />
        </mxCell>
        <mxCell id="BQgqDWQCYyrBN21gysh5-17" value="384 Kernel&lt;div&gt;Size = 3*3*256&lt;/div&gt;&lt;div&gt;Stride = 1&lt;br&gt;Pad&amp;nbsp; = 1&lt;/div&gt;" style="rounded=0;whiteSpace=wrap;html=1;fontFamily=Times New Roman;fontSize=14;fillColor=none;" parent="1" vertex="1">
          <mxGeometry x="400" y="239.99" width="80" height="80" as="geometry" />
        </mxCell>
        <mxCell id="AEoWpA2s8od-1cQqJ8zc-2" style="edgeStyle=orthogonalEdgeStyle;rounded=0;orthogonalLoop=1;jettySize=auto;html=1;exitX=0;exitY=0.5;exitDx=0;exitDy=0;entryX=1;entryY=0.5;entryDx=0;entryDy=0;fontFamily=Times New Roman;fontSize=14;" parent="1" source="BQgqDWQCYyrBN21gysh5-18" target="BQgqDWQCYyrBN21gysh5-19" edge="1">
          <mxGeometry relative="1" as="geometry" />
        </mxCell>
        <mxCell id="BQgqDWQCYyrBN21gysh5-18" value="384 kernel&lt;div&gt;Size = 3*3*192&lt;/div&gt;&lt;div&gt;Stride = 1&lt;/div&gt;&lt;div&gt;Pad = 1&lt;/div&gt;" style="rounded=0;whiteSpace=wrap;html=1;fontFamily=Times New Roman;fontSize=14;fillColor=none;" parent="1" vertex="1">
          <mxGeometry x="280" y="239.99" width="90" height="80" as="geometry" />
        </mxCell>
        <mxCell id="BQgqDWQCYyrBN21gysh5-19" value="256 Kernel&lt;div&gt;Size =3*3*192&lt;/div&gt;&lt;div&gt;Stride = 1&lt;/div&gt;&lt;div&gt;Pad = 1&lt;/div&gt;" style="rounded=0;whiteSpace=wrap;html=1;fontFamily=Times New Roman;fontSize=14;fillColor=none;" parent="1" vertex="1">
          <mxGeometry x="160" y="239.99" width="80" height="80" as="geometry" />
        </mxCell>
        <mxCell id="BQgqDWQCYyrBN21gysh5-25" value="Pool1" style="text;html=1;align=center;verticalAlign=middle;resizable=0;points=[];autosize=1;strokeColor=none;fillColor=none;fontFamily=Times New Roman;fontSize=14;fontColor=default;" parent="1" vertex="1">
          <mxGeometry x="409.99658627372565" y="50.00000000000002" width="60" height="30" as="geometry" />
        </mxCell>
        <mxCell id="BQgqDWQCYyrBN21gysh5-26" value="&lt;font&gt;Conv1&lt;/font&gt;" style="text;html=1;align=center;verticalAlign=middle;resizable=0;points=[];autosize=1;strokeColor=none;fillColor=none;fontFamily=Times New Roman;fontSize=14;fontColor=default;" parent="1" vertex="1">
          <mxGeometry x="295.2325548343434" y="50.00000000000002" width="60" height="30" as="geometry" />
        </mxCell>
        <mxCell id="BQgqDWQCYyrBN21gysh5-27" value="Conv2" style="text;html=1;align=center;verticalAlign=middle;resizable=0;points=[];autosize=1;strokeColor=none;fillColor=none;fontFamily=Times New Roman;fontSize=14;fontColor=default;" parent="1" vertex="1">
          <mxGeometry x="532.808591687944" y="50.00000000000002" width="60" height="30" as="geometry" />
        </mxCell>
        <mxCell id="BQgqDWQCYyrBN21gysh5-28" value="Pool2" style="text;html=1;align=center;verticalAlign=middle;resizable=0;points=[];autosize=1;strokeColor=none;fillColor=none;fontFamily=Times New Roman;fontSize=14;fontColor=default;" parent="1" vertex="1">
          <mxGeometry x="527.8092081705479" y="209.98505897771952" width="60" height="30" as="geometry" />
        </mxCell>
        <mxCell id="BQgqDWQCYyrBN21gysh5-29" value="Conv3" style="text;html=1;align=center;verticalAlign=middle;resizable=0;points=[];autosize=1;strokeColor=none;fillColor=none;fontFamily=Times New Roman;fontSize=14;fontColor=default;" parent="1" vertex="1">
          <mxGeometry x="409.99820100286087" y="209.98505897771952" width="60" height="30" as="geometry" />
        </mxCell>
        <mxCell id="BQgqDWQCYyrBN21gysh5-30" value="Conv4" style="text;html=1;align=center;verticalAlign=middle;resizable=0;points=[];autosize=1;strokeColor=none;fillColor=none;fontFamily=Times New Roman;fontSize=14;fontColor=default;" parent="1" vertex="1">
          <mxGeometry x="290.00255483434336" y="209.98505897771952" width="60" height="30" as="geometry" />
        </mxCell>
        <mxCell id="BQgqDWQCYyrBN21gysh5-31" value="Conv5" style="text;html=1;align=center;verticalAlign=middle;resizable=0;points=[];autosize=1;strokeColor=none;fillColor=none;fontFamily=Times New Roman;fontSize=14;fontColor=default;" parent="1" vertex="1">
          <mxGeometry x="170.00338727043408" y="209.98505897771952" width="60" height="30" as="geometry" />
        </mxCell>
        <mxCell id="BQgqDWQCYyrBN21gysh5-32" value="Max Pool + LRN" style="text;html=1;align=center;verticalAlign=middle;resizable=0;points=[];autosize=1;strokeColor=none;fillColor=none;fontFamily=Times New Roman;fontSize=14;fontColor=default;fontStyle=2" parent="1" vertex="1">
          <mxGeometry x="374.6984720214108" y="154.73003931847967" width="120" height="30" as="geometry" />
        </mxCell>
        <mxCell id="BQgqDWQCYyrBN21gysh5-33" value="Max Pool + LRN" style="text;html=1;align=center;verticalAlign=middle;resizable=0;points=[];autosize=1;strokeColor=none;fillColor=none;fontFamily=Times New Roman;fontSize=14;fontColor=default;fontStyle=2" parent="1" vertex="1">
          <mxGeometry x="502.8064207709108" y="319.9941022280472" width="120" height="30" as="geometry" />
        </mxCell>
      </root>
    </mxGraphModel>
  </diagram>
</mxfile>
